<svg width="16" height="16" viewBox="0 0 16 16" fill="none" xmlns="http://www.w3.org/2000/svg">
    <path d="M8.16482 5.48133C8.07693 5.39354 7.95779 5.34424 7.83357 5.34424C7.70935 5.34424 7.59021 5.39354 7.50232 5.48133L3.12732 9.85633C3.06185 9.92188 3.01727 10.0054 2.99922 10.0962C2.98117 10.1871 2.99045 10.2813 3.02589 10.3669C3.06134 10.4525 3.12135 10.5257 3.19836 10.5772C3.27537 10.6287 3.36592 10.6562 3.45857 10.6563H12.2086C12.3012 10.6562 12.3918 10.6287 12.4688 10.5772C12.5458 10.5257 12.6058 10.4525 12.6413 10.3669C12.6767 10.2813 12.686 10.1871 12.6679 10.0962C12.6499 10.0054 12.6053 9.92188 12.5398 9.85633L8.16482 5.48133Z" fill="#00D1D2"/>
</svg>
