<svg width="20" height="20" viewBox="0 0 20 20" fill="none" xmlns="http://www.w3.org/2000/svg">
    <g clip-path="url(#clip0_302_46749)">
        <path d="M10.0013 18.3334C14.6038 18.3334 18.3346 14.6026 18.3346 10.0001C18.3346 5.39758 14.6038 1.66675 10.0013 1.66675C5.3988 1.66675 1.66797 5.39758 1.66797 10.0001C1.66797 14.6026 5.3988 18.3334 10.0013 18.3334Z" stroke="#96A0B5" stroke-width="1.375" stroke-linecap="round" stroke-linejoin="round"/>
        <path d="M10 12.5C10.663 12.5 11.2989 12.2366 11.7678 11.7678C12.2366 11.2989 12.5 10.663 12.5 10C12.5 9.33696 12.2366 8.70107 11.7678 8.23223C11.2989 7.76339 10.663 7.5 10 7.5C9.33696 7.5 8.70107 7.76339 8.23223 8.23223C7.76339 8.70107 7.5 9.33696 7.5 10C7.5 10.663 7.76339 11.2989 8.23223 11.7678C8.70107 12.2366 9.33696 12.5 10 12.5Z" stroke="#96A0B5" stroke-width="1.375" stroke-linecap="round" stroke-linejoin="round"/>
    </g>
    <defs>
        <clipPath id="clip0_302_46749">
            <rect width="20" height="20" fill="white"/>
        </clipPath>
    </defs>
</svg>
