<svg width="20" height="20" viewBox="0 0 20 20" fill="none" xmlns="http://www.w3.org/2000/svg">
    <path d="M4.16797 13.3334V11.6667" stroke="#96A0B5" stroke-width="1.5" stroke-linecap="round" stroke-linejoin="round"/>
    <path d="M10 17.4999V15.8333" stroke="#96A0B5" stroke-width="1.5" stroke-linecap="round" stroke-linejoin="round"/>
    <path d="M15.832 10.8334V9.16675" stroke="#96A0B5" stroke-width="1.5" stroke-linecap="round" stroke-linejoin="round"/>
    <path d="M4.16797 6.66667V5" stroke="#96A0B5" stroke-width="1.5" stroke-linecap="round" stroke-linejoin="round"/>
    <path d="M10 10.8334V9.16675" stroke="#96A0B5" stroke-width="1.5" stroke-linecap="round" stroke-linejoin="round"/>
    <path d="M15.832 4.16667V2.5" stroke="#96A0B5" stroke-width="1.5" stroke-linecap="round" stroke-linejoin="round"/>
    <path d="M5.83333 7.16675V11.1667C5.83333 11.4429 5.60948 11.6667 5.33333 11.6667H3C2.72386 11.6667 2.5 11.4429 2.5 11.1667V7.16675C2.5 6.89061 2.72386 6.66675 3 6.66675H5.33333C5.60948 6.66675 5.83333 6.89061 5.83333 7.16675Z" stroke="#96A0B5" stroke-width="1.5" stroke-linecap="round" stroke-linejoin="round"/>
    <path d="M11.6654 11.3333V15.3333C11.6654 15.6094 11.4415 15.8333 11.1654 15.8333H8.83203C8.55586 15.8333 8.33203 15.6094 8.33203 15.3333V11.3333C8.33203 11.0571 8.55586 10.8333 8.83203 10.8333H11.1654C11.4415 10.8333 11.6654 11.0571 11.6654 11.3333Z" stroke="#96A0B5" stroke-width="1.5" stroke-linecap="round" stroke-linejoin="round"/>
    <path d="M17.5013 4.66675V8.66675C17.5013 8.94291 17.2775 9.16675 17.0013 9.16675H14.668C14.3918 9.16675 14.168 8.94291 14.168 8.66675V4.66675C14.168 4.39061 14.3918 4.16675 14.668 4.16675H17.0013C17.2775 4.16675 17.5013 4.39061 17.5013 4.66675Z" stroke="#96A0B5" stroke-width="1.5" stroke-linecap="round" stroke-linejoin="round"/>
</svg>
