<svg width="32" height="32" viewBox="0 0 32 32" fill="none" xmlns="http://www.w3.org/2000/svg">
    <path d="M9.80019 2C8.421 3.9392 7.5154 6.08 6.9618 8.3744C6.7922 9.0784 6.7122 9.7856 6.7922 10.5152C6.8722 11.248 7.2178 11.8368 7.6786 12.384C8.4434 13.2928 9.3234 14.0928 10.1586 14.928C12.309 17.0848 14.3954 19.2992 16.4722 21.5264C17.5986 22.7296 18.805 23.8592 19.989 25.0112C20.1746 25.1904 20.1586 25.2704 19.989 25.4496C18.5778 26.9184 17.173 28.4 15.7746 29.8848C15.6274 30.0384 15.5474 30.048 15.397 29.9008C13.989 28.5312 12.5778 27.168 11.1602 25.8112C11.045 25.7024 11.0546 25.648 11.1602 25.552C11.989 24.784 12.8146 24.016 13.637 23.2416C13.7426 23.1392 13.8162 23.1424 13.9186 23.2416C14.2866 23.584 14.6546 23.9264 15.0354 24.256C15.1666 24.368 15.1378 24.432 15.0354 24.5408L14.2322 25.4272C14.1234 25.5424 14.117 25.6096 14.245 25.7184C14.6258 26.048 14.997 26.3872 15.3618 26.7296C15.4706 26.832 15.541 26.8544 15.6562 26.7232C16.101 26.2176 16.5522 25.7216 17.013 25.232C17.1378 25.1008 17.1154 25.0304 17.0034 24.9056C16.3826 24.224 15.7458 23.5616 15.1026 22.9056C13.8322 21.616 12.565 20.3168 11.221 19.104C9.7842 17.8048 8.2866 16.5824 6.7922 15.3536C6.1298 14.8128 5.4802 14.2656 4.869 13.664C4.6322 13.4304 4.421 13.1744 4.2322 12.8992C3.9954 12.5568 3.8994 12.192 3.9826 11.7696C4.6482 8.4832 6.2354 5.6832 8.4978 3.2448C8.7154 3.008 8.9458 2.7808 9.1794 2.5568C9.39059 2.3616 9.5954 2.1824 9.80019 2ZM22.213 2.0704C22.4946 2.2272 22.6514 2.416 22.8274 2.5856C24.9586 4.6624 26.5618 7.0784 27.5058 9.9136C27.7202 10.5504 27.8834 11.2 28.0082 11.8624C28.0594 12.1408 28.0114 12.3872 27.8866 12.6304C27.525 13.3408 26.9426 13.8656 26.3506 14.368C24.8914 15.6128 23.4034 16.8192 21.9538 18.0672C20.7602 19.0944 19.6146 20.176 18.5106 21.2992C18.4626 21.3472 18.4082 21.3888 18.3698 21.4432C18.2002 21.6736 18.069 21.6544 17.8866 21.4272C17.5858 21.0592 17.2498 20.7232 16.9202 20.384C16.8114 20.272 16.8082 20.2048 16.917 20.0832C18.6674 18.2016 20.4082 16.3104 22.2514 14.5152C22.9778 13.808 23.6882 13.0848 24.3602 12.3232C25.1634 11.4144 25.3586 10.3456 25.1698 9.2128C24.7538 6.6624 23.781 4.3264 22.2898 2.2112C22.2738 2.192 22.2642 2.1664 22.213 2.0704ZM19.4194 15.6384C19.4066 14.6624 19.3202 13.7536 18.4146 13.1808C21.1474 11.8464 22.501 9.4688 23.4066 6.6816C24.0562 8.6624 24.229 10.5152 22.7634 12.1952C21.733 13.3728 20.6194 14.4704 19.525 15.5872C19.5058 15.6032 19.477 15.6064 19.4194 15.6384ZM13.5762 13.1776C12.6674 13.7696 12.5842 14.6816 12.5522 15.6768C12.389 15.5072 12.2706 15.3792 12.1458 15.2576C11.2498 14.3456 10.357 13.4272 9.477 12.4928C8.1234 11.0624 7.8226 9.4208 8.3218 7.5744C8.3954 7.312 8.469 7.0464 8.5458 6.784C8.549 6.7712 8.57459 6.7616 8.60339 6.736C9.49939 9.456 10.8306 11.84 13.5762 13.1776ZM19.237 11.4624C19.4514 10.7808 19.3362 10.1696 18.9298 9.5968C18.8466 9.4752 18.6354 9.3824 18.6866 9.248C18.7282 9.1392 18.933 9.0944 19.0642 9.0176C20.7122 8.064 21.8482 6.7104 22.3538 4.8576C22.3986 4.6944 22.421 4.5312 22.4562 4.3456C22.629 4.6688 22.6898 5.3728 22.6194 5.8656C22.4338 7.1776 21.8354 8.3008 21.0834 9.3632C20.5522 10.1248 19.9442 10.8256 19.237 11.4624ZM12.7826 11.4752C12.309 11.0944 11.9186 10.6496 11.5378 10.1888C10.7634 9.2576 10.1042 8.256 9.6786 7.1168C9.3714 6.2816 9.27219 5.424 9.43219 4.5472C9.44179 4.4992 9.4514 4.4544 9.4674 4.4096C9.47699 4.384 9.4898 4.3584 9.5186 4.2976C9.605 4.6944 9.6786 5.0656 9.8098 5.4176C10.4242 7.0816 11.5666 8.272 13.093 9.12C13.2818 9.2224 13.3458 9.2928 13.173 9.4752C12.6674 10.0256 12.5586 10.672 12.7474 11.376L12.7826 11.4752Z" fill="#95A0C5"/>
</svg>
