<svg width="20" height="20" viewBox="0 0 20 20" fill="none" xmlns="http://www.w3.org/2000/svg">
    <path d="M5.83203 17.5C5.3737 17.5 4.98148 17.3369 4.65537 17.0108C4.32926 16.6847 4.16592 16.2922 4.16537 15.8333V5C3.92926 5 3.73148 4.92 3.57203 4.76C3.41259 4.6 3.33259 4.40222 3.33203 4.16667C3.33148 3.93111 3.41148 3.73333 3.57203 3.57333C3.73259 3.41333 3.93037 3.33333 4.16537 3.33333H7.4987C7.4987 3.09722 7.5787 2.89944 7.7387 2.74C7.8987 2.58056 8.09648 2.50056 8.33203 2.5H11.6654C11.9015 2.5 12.0995 2.58 12.2595 2.74C12.4195 2.9 12.4993 3.09778 12.4987 3.33333H15.832C16.0681 3.33333 16.2662 3.41333 16.4262 3.57333C16.5862 3.73333 16.6659 3.93111 16.6654 4.16667C16.6648 4.40222 16.5848 4.60028 16.4254 4.76083C16.2659 4.92139 16.0681 5.00111 15.832 5V15.8333C15.832 16.2917 15.669 16.6842 15.3429 17.0108C15.0168 17.3375 14.6243 17.5006 14.1654 17.5H5.83203ZM8.33203 14.1667C8.56814 14.1667 8.7662 14.0867 8.9262 13.9267C9.0862 13.7667 9.16592 13.5689 9.16537 13.3333V7.5C9.16537 7.26389 9.08537 7.06611 8.92537 6.90667C8.76537 6.74722 8.56759 6.66722 8.33203 6.66667C8.09648 6.66611 7.8987 6.74611 7.7387 6.90667C7.5787 7.06722 7.4987 7.265 7.4987 7.5V13.3333C7.4987 13.5694 7.5787 13.7675 7.7387 13.9275C7.8987 14.0875 8.09648 14.1672 8.33203 14.1667ZM11.6654 14.1667C11.9015 14.1667 12.0995 14.0867 12.2595 13.9267C12.4195 13.7667 12.4993 13.5689 12.4987 13.3333V7.5C12.4987 7.26389 12.4187 7.06611 12.2587 6.90667C12.0987 6.74722 11.9009 6.66722 11.6654 6.66667C11.4298 6.66611 11.232 6.74611 11.072 6.90667C10.912 7.06722 10.832 7.265 10.832 7.5V13.3333C10.832 13.5694 10.912 13.7675 11.072 13.9275C11.232 14.0875 11.4298 14.1672 11.6654 14.1667Z" fill="#95A0C5"/>
</svg>
