<svg width="80" height="80" viewBox="0 0 80 80" fill="none" xmlns="http://www.w3.org/2000/svg">
    <path d="M19.9999 66.6667C18.1666 66.6667 16.5977 66.0145 15.2933 64.71C13.9888 63.4056 13.3355 61.8356 13.3333 60V53.3334C13.3333 52.3889 13.6533 51.5978 14.2933 50.96C14.9333 50.3223 15.7244 50.0023 16.6666 50C17.6088 49.9978 18.401 50.3178 19.0433 50.96C19.6855 51.6023 20.0044 52.3934 19.9999 53.3334V60H59.9999V53.3334C59.9999 52.3889 60.3199 51.5978 60.9599 50.96C61.5999 50.3223 62.391 50.0023 63.3333 50C64.2755 49.9978 65.0677 50.3178 65.7099 50.96C66.3521 51.6023 66.671 52.3934 66.6666 53.3334V60C66.6666 61.8334 66.0144 63.4034 64.7099 64.71C63.4055 66.0167 61.8355 66.6689 59.9999 66.6667H19.9999ZM36.6666 26.1667L30.4166 32.4167C29.7499 33.0834 28.9588 33.4034 28.0433 33.3767C27.1277 33.35 26.3355 33.0023 25.6666 32.3334C25.0555 31.6667 24.7355 30.8889 24.7066 30C24.6777 29.1112 24.9977 28.3334 25.6666 27.6667L37.6666 15.6667C37.9999 15.3334 38.361 15.0978 38.7499 14.9601C39.1388 14.8223 39.5555 14.7523 39.9999 14.7501C40.4444 14.7478 40.861 14.8178 41.2499 14.9601C41.6388 15.1023 41.9999 15.3378 42.3333 15.6667L54.3332 27.6667C54.9999 28.3334 55.3199 29.1112 55.2932 30C55.2666 30.8889 54.9466 31.6667 54.3332 32.3334C53.6666 33 52.8755 33.3478 51.9599 33.3767C51.0444 33.4056 50.2521 33.0856 49.5833 32.4167L43.3333 26.1667V50C43.3333 50.9445 43.0133 51.7367 42.3733 52.3767C41.7333 53.0167 40.9421 53.3356 39.9999 53.3334C39.0577 53.3312 38.2666 53.0112 37.6266 52.3734C36.9866 51.7356 36.6666 50.9445 36.6666 50V26.1667Z" fill="#4D5759"/>
</svg>
