<svg width="20" height="20" viewBox="0 0 20 20" fill="none" xmlns="http://www.w3.org/2000/svg">
    <path d="M15.7695 2.61431C15.5352 2.37986 15.257 2.19389 14.9507 2.06703C14.6445 1.94018 14.3162 1.87492 13.9848 1.875C13.6533 1.87508 13.3251 1.94049 13.0189 2.06748C12.7127 2.19448 12.4346 2.38058 12.2004 2.61515L4.27786 10.5485C3.80581 11.0216 3.5406 11.6626 3.54036 12.331V15.0001C3.54036 15.3451 3.82036 15.6251 4.16536 15.6251H6.8512C7.52036 15.6251 8.16203 15.3585 8.63453 14.886L16.5512 6.96431C17.0234 6.49096 17.2886 5.84962 17.2886 5.18098C17.2886 4.51234 17.0234 3.871 16.5512 3.39765L15.7695 2.61431ZM3.33203 16.8751C3.16627 16.8751 3.0073 16.941 2.89009 17.0582C2.77288 17.1754 2.70703 17.3344 2.70703 17.5001C2.70703 17.6659 2.77288 17.8249 2.89009 17.9421C3.0073 18.0593 3.16627 18.1251 3.33203 18.1251H16.6654C16.8311 18.1251 16.9901 18.0593 17.1073 17.9421C17.2245 17.8249 17.2904 17.6659 17.2904 17.5001C17.2904 17.3344 17.2245 17.1754 17.1073 17.0582C16.9901 16.941 16.8311 16.8751 16.6654 16.8751H3.33203Z" fill="#95A0C5"/>
</svg>
