<svg width="48" height="51" viewBox="0 0 48 51" fill="none" xmlns="http://www.w3.org/2000/svg">
    <g filter="url(#filter0_d_192_5515)">
        <path fill-rule="evenodd" clip-rule="evenodd" d="M22.524 45.268C22.524 45.268 8 33.036 8 21C8 16.7565 9.68571 12.6869 12.6863 9.68629C15.6869 6.68571 19.7565 5 24 5C28.2435 5 32.3131 6.68571 35.3137 9.68629C38.3143 12.6869 40 16.7565 40 21C40 33.036 25.476 45.268 25.476 45.268C24.668 46.012 23.338 46.004 22.524 45.268ZM24 28C24.9193 28 25.8295 27.8189 26.6788 27.4672C27.5281 27.1154 28.2997 26.5998 28.9497 25.9497C29.5998 25.2997 30.1154 24.5281 30.4672 23.6788C30.8189 22.8295 31 21.9193 31 21C31 20.0807 30.8189 19.1705 30.4672 18.3212C30.1154 17.4719 29.5998 16.7003 28.9497 16.0503C28.2997 15.4002 27.5281 14.8846 26.6788 14.5328C25.8295 14.1811 24.9193 14 24 14C22.1435 14 20.363 14.7375 19.0503 16.0503C17.7375 17.363 17 19.1435 17 21C17 22.8565 17.7375 24.637 19.0503 25.9497C20.363 27.2625 22.1435 28 24 28Z" fill="#00D1D2"/>
    </g>
    <defs>
        <filter id="filter0_d_192_5515" x="-5" y="-4" width="58" height="58" filterUnits="userSpaceOnUse" color-interpolation-filters="sRGB">
            <feFlood flood-opacity="0" result="BackgroundImageFix"/>
            <feColorMatrix in="SourceAlpha" type="matrix" values="0 0 0 0 0 0 0 0 0 0 0 0 0 0 0 0 0 0 127 0" result="hardAlpha"/>
            <feOffset/>
            <feGaussianBlur stdDeviation="2.5"/>
            <feComposite in2="hardAlpha" operator="out"/>
            <feColorMatrix type="matrix" values="0 0 0 0 0 0 0 0 0 0 0 0 0 0 0 0 0 0 0.25 0"/>
            <feBlend mode="normal" in2="BackgroundImageFix" result="effect1_dropShadow_192_5515"/>
            <feBlend mode="normal" in="SourceGraphic" in2="effect1_dropShadow_192_5515" result="shape"/>
        </filter>
    </defs>
</svg>
