<svg width="102" height="26" viewBox="0 0 102 26" fill="none" xmlns="http://www.w3.org/2000/svg">
    <path d="M61.5164 3.25C62.6669 3.25 63.6736 3.39444 64.5724 3.64722C65.4713 3.9 66.2263 4.29722 66.8016 4.76667C67.2689 5.16389 67.5925 5.59722 67.8442 6.10278C68.0599 6.60833 68.2037 7.15 68.2037 7.76389V10.9778V14.1917C68.2037 14.8056 68.0959 15.3472 67.8442 15.8528C67.6285 16.3583 67.2689 16.7917 66.8016 17.1889C66.2263 17.6944 65.4713 18.0556 64.5724 18.3083C63.6736 18.5611 62.6669 18.7056 61.5164 18.7056H57.166H52.8157C51.6651 18.7056 50.6584 18.5611 49.7596 18.3083C48.8608 18.0556 48.1057 17.6583 47.5305 17.1889C47.0631 16.7917 46.7395 16.3583 46.4878 15.8528C46.2721 15.3472 46.1283 14.8056 46.1283 14.1917V10.9778V7.76389C46.1283 7.15 46.2362 6.60833 46.4878 6.10278C46.7036 5.59722 47.0631 5.16389 47.5305 4.76667C48.1057 4.26111 48.8608 3.9 49.7596 3.64722C50.6584 3.39444 51.6651 3.25 52.8157 3.25H57.166H61.5164ZM61.5164 0.0361111H57.166H52.8157C49.6158 0.0361111 47.135 0.902778 45.4811 2.31111C43.8273 3.71944 42.9644 5.66944 42.9644 7.8V11.0139V14.2278C42.9644 16.3583 43.8273 18.3083 45.4811 19.7167C47.135 21.125 49.6158 21.9917 52.8157 21.9917H57.166H61.5164C64.7163 21.9917 67.197 21.125 68.8509 19.7167C70.5048 18.3083 71.3676 16.3583 71.3676 14.2278V11.0139V7.8C71.3676 5.66944 70.5048 3.71944 68.8509 2.31111C67.197 0.902778 64.7163 0.0361111 61.5164 0.0361111ZM36.4209 19.3194C36.2411 19.1389 35.9894 18.9583 35.7378 18.85C35.4861 18.7417 35.1985 18.7056 34.9468 18.7056H26.9651H18.9834C17.8329 18.7056 16.8262 18.5611 15.9274 18.3083C15.0286 18.0556 14.2735 17.6583 13.6983 17.1889C13.2309 16.7917 12.9073 16.3583 12.6556 15.8528C12.4399 15.3472 12.2961 14.8056 12.2961 14.1917V8.95555V3.71944C12.2961 3.61111 12.332 3.46667 12.4399 3.39444C12.5118 3.32222 12.6197 3.25 12.7635 3.25H20.2059H27.6482C28.7987 3.25 29.8054 3.39444 30.7043 3.64722C31.6031 3.9 32.3581 4.29722 32.9334 4.76667C33.4008 5.16389 33.7244 5.59722 33.976 6.10278C34.1918 6.60833 34.3356 7.15 34.3356 7.76389V10.7611V13.7583C34.3356 14.1194 34.4794 14.4806 34.7311 14.7333C34.9827 14.9861 35.3063 15.1306 35.7018 15.1306H35.9535H36.2051C36.5647 15.1306 36.9242 14.9861 37.1759 14.7333C37.4276 14.4806 37.5714 14.1556 37.5714 13.7583V10.7611V7.76389C37.5714 5.63333 36.7085 3.68333 35.0546 2.275C33.4008 0.866667 30.92 0 27.7201 0H19.1272H10.4984C10.1389 0 9.77934 0.144444 9.52767 0.397222C9.276 0.65 9.13218 0.975 9.13218 1.37222V7.76389V14.1917C9.13218 16.3222 9.99507 18.2722 11.6489 19.6806C13.3028 21.0889 15.7836 21.9556 18.9834 21.9556H26.4977H34.012C34.1558 21.9556 34.2996 21.9917 34.4434 22.0278C34.5872 22.1 34.6951 22.1722 34.803 22.2806L36.4568 23.9417L38.1107 25.6028C38.3624 25.8556 38.7219 26 39.0814 26C39.441 26 39.7645 25.8556 40.0522 25.6028L40.2319 25.4222L40.4117 25.2417C40.6634 24.9889 40.8072 24.6278 40.8072 24.2667C40.8072 23.9056 40.6634 23.5444 40.4117 23.2917L38.4343 21.3056L36.4209 19.3194ZM84.3828 0.0361111C81.4706 0.0361111 79.3493 0.686111 77.9831 1.76944C76.6169 2.85278 75.9697 4.33333 75.9697 5.95833V6.28333V6.60833C75.9697 8.23333 76.6169 9.71389 77.9831 10.7972C79.3493 11.8806 81.4706 12.5306 84.3828 12.5306H88.9489H93.515C94.5217 12.5306 95.3846 12.6389 96.1396 12.8194C96.8946 13 97.5058 13.2528 97.9373 13.6139C98.1889 13.8306 98.4047 14.0472 98.5125 14.3722C98.6204 14.6972 98.6923 15.0944 98.6923 15.6C98.6923 16.1417 98.6204 16.5389 98.5125 16.8278C98.4047 17.1167 98.1889 17.3694 97.9373 17.5861C97.5058 17.9111 96.8946 18.2 96.1396 18.3806C95.3846 18.5611 94.4857 18.6694 93.515 18.6694H88.122H82.7289C82.1177 18.6694 81.5065 18.5611 80.9672 18.3083C80.392 18.0917 79.8886 17.7667 79.4572 17.3333L79.0976 16.9722L78.7381 16.6111C78.4505 16.3583 78.0909 16.2139 77.7674 16.2139C77.4078 16.2139 77.0483 16.3583 76.7966 16.6472L76.6528 16.8278L76.509 17.0083C76.2573 17.2972 76.1135 17.6583 76.1495 17.9833C76.1854 18.3083 76.2933 18.6694 76.5809 18.9583L76.9404 19.3194L77.3 19.6806C78.055 20.4028 78.9179 20.9444 79.8527 21.3056C80.7875 21.6667 81.7942 21.8833 82.8008 21.8833H88.1939H93.5869C96.4991 21.8833 98.6204 21.2333 99.9866 20.15C101.353 19.0667 102 17.5861 102 15.9611V15.6361V15.3111C102 13.6861 101.353 12.2056 99.9866 11.1222C98.6204 10.0389 96.4991 9.38889 93.5869 9.38889H89.0208H84.4547C83.448 9.38889 82.5851 9.28055 81.8301 9.1C81.0751 8.91944 80.4639 8.66667 80.0324 8.30556C79.7808 8.08889 79.565 7.87222 79.4572 7.54722C79.3493 7.22222 79.2774 6.825 79.2774 6.31944C79.2774 5.77778 79.3493 5.38056 79.4572 5.09167C79.601 4.76667 79.7808 4.55 80.0324 4.33333C80.4639 4.00833 81.0751 3.71944 81.8301 3.53889C82.5851 3.35833 83.484 3.25 84.4547 3.25H89.4163H94.3779C94.9531 3.25 95.5643 3.35833 96.1036 3.575C96.6429 3.79167 97.1463 4.08056 97.5777 4.47778L98.0451 4.875L98.5125 5.27222C98.8001 5.525 99.1597 5.63333 99.5192 5.63333C99.8787 5.59722 100.202 5.45278 100.454 5.16389L100.598 4.98333L100.742 4.80278C100.993 4.51389 101.101 4.15278 101.101 3.79167C101.101 3.43056 100.921 3.10556 100.634 2.85278L100.166 2.45556L99.699 2.05833C98.9799 1.40833 98.117 0.866667 97.2182 0.541667C96.3194 0.180556 95.3486 0 94.3419 0H89.3803L84.3828 0.0361111ZM0 1.40833V10.9778V20.5472C0 20.9444 0.143814 21.2694 0.395488 21.5222C0.647162 21.775 0.970744 21.9194 1.36623 21.9194H1.58195H1.79767C2.19316 21.9194 2.51674 21.775 2.76842 21.5222C3.02009 21.2694 3.16391 20.9444 3.16391 20.5472V10.9778V1.40833C3.16391 1.01111 3.02009 0.686111 2.76842 0.433333C2.51674 0.180556 2.19316 0.0361111 1.79767 0.0361111H1.58195H1.36623C0.970744 0.0361111 0.647162 0.180556 0.395488 0.433333C0.143814 0.686111 0 1.01111 0 1.40833Z" fill="#00D1D2"/>
</svg>
