<svg width="32" height="32" viewBox="0 0 32 32" fill="none" xmlns="http://www.w3.org/2000/svg">
    <path d="M2 15.9456C1.9936 23.7184 8.2848 30.0064 16.0576 30C23.7152 29.9936 30 23.6736 30 15.9776C30 8.2752 23.7024 1.9936 15.984 2C8.32001 2.0064 2.0032 8.30081 2 15.9456ZM28.3936 16.0352C28.3808 22.848 22.8064 28.4032 15.9872 28.3936C9.14881 28.384 3.6 22.8192 3.6064 15.9776C3.6128 9.18081 9.2416 3.584 16.0576 3.6064C22.864 3.6288 28.4064 9.21281 28.3936 16.0352ZM14.544 15.504C14.512 15.6224 14.4928 15.744 14.4928 15.872C14.4832 16.6944 15.1264 17.3472 15.952 17.344C16.448 17.344 16.8896 17.0976 17.1616 16.7232C17.2288 16.6304 17.28 16.5472 17.2928 16.5472H17.3152C20.3296 16.5536 23.3472 16.5504 26.3616 16.5504H26.6176C26.7296 16.5504 26.8224 16.4576 26.8224 16.3456V15.6992C26.8224 15.5872 26.7296 15.4944 26.6176 15.4944H26.3808C23.3888 15.4944 20.4 15.4944 17.408 15.4976H17.3984C17.3952 15.4976 17.3664 15.408 17.3216 15.3024C17.0944 14.7808 16.5728 14.4064 15.9776 14.4032C15.8432 14.4032 15.712 14.4224 15.5872 14.4576C15.4784 14.4896 15.328 14.464 15.2448 14.384C14.1568 13.328 13.072 12.2688 11.9968 11.2032C11.6448 10.8544 11.312 10.4832 10.976 10.1184C10.8992 10.0352 10.7712 10.032 10.6912 10.112C10.4992 10.304 10.336 10.4672 10.1664 10.6336C10.0864 10.7136 10.0864 10.8448 10.1664 10.9216C11.616 12.3456 13.0464 13.7504 14.4704 15.1648C14.544 15.2448 14.5728 15.392 14.544 15.504ZM15.2736 25.9232C15.2672 26.3104 15.5712 26.6144 15.9584 26.6144C16.3392 26.6144 16.6528 26.304 16.656 25.9296C16.6592 25.5552 16.3424 25.2352 15.968 25.2352C15.5904 25.2352 15.28 25.5456 15.2736 25.9232ZM20.2112 7.3888C20.208 7.7856 20.4992 8.08321 20.8896 8.08321C21.2736 8.08321 21.5904 7.78241 21.6 7.40801C21.6096 7.04641 21.2864 6.7168 20.9088 6.70401C20.528 6.69441 20.2144 7.00481 20.2112 7.3888ZM15.3856 6.12161C15.392 6.50241 15.7024 6.80641 16.0832 6.8C16.464 6.79361 16.768 6.4832 16.7616 6.10241C16.7552 5.72161 16.4416 5.41761 16.064 5.42401C15.68 5.43041 15.3792 5.74081 15.3856 6.12161ZM8.08001 11.104C8.07681 10.7136 7.76641 10.4032 7.3888 10.416C7.0272 10.4288 6.71361 10.7392 6.70721 11.0944C6.70081 11.4752 7.00801 11.7856 7.39521 11.7888C7.78881 11.792 8.08321 11.4976 8.08001 11.104ZM11.7888 24.6144C11.7792 24.24 11.4816 23.9392 11.12 23.936C10.7552 23.9328 10.416 24.2688 10.4192 24.6336C10.4224 25.0208 10.7296 25.3184 11.12 25.312C11.5136 25.3088 11.7984 25.0112 11.7888 24.6144ZM23.8656 11.088C23.872 11.44 24.192 11.7632 24.5472 11.7728C24.9152 11.7824 25.2416 11.4592 25.2512 11.0816C25.2608 10.7072 24.9472 10.3968 24.5568 10.3968C24.1696 10.3936 23.8592 10.704 23.8656 11.088ZM23.9424 20.9312C23.9488 21.3056 24.24 21.6 24.6112 21.6064C25.0048 21.6128 25.3088 21.3216 25.312 20.9344C25.3152 20.544 25.0112 20.2272 24.6368 20.2272C24.272 20.2304 23.936 20.5664 23.9424 20.9312ZM6.8 15.952C6.79361 15.5776 6.47681 15.2704 6.09921 15.2736C5.71841 15.2768 5.41441 15.5936 5.42401 15.9712C5.4336 16.352 5.74721 16.6592 6.12161 16.6528C6.49601 16.6464 6.80641 16.3264 6.8 15.952ZM8.13121 20.9728C8.14721 20.5984 7.83361 20.2816 7.44321 20.2816C7.05601 20.2784 6.75841 20.5792 6.76161 20.9728C6.76161 21.36 7.07521 21.6704 7.45601 21.6608C7.79201 21.6544 8.11841 21.3216 8.13121 20.9728ZM11.7664 7.44321C11.7728 7.07521 11.4528 6.75841 11.0656 6.75841C10.6816 6.75841 10.3872 7.06561 10.3936 7.45921C10.4 7.83361 10.688 8.12481 11.0624 8.13761C11.424 8.14721 11.76 7.81761 11.7664 7.44321ZM20.2816 24.6176C20.288 24.992 20.576 25.2864 20.9504 25.296C21.312 25.3056 21.648 24.976 21.6544 24.6016C21.6608 24.2176 21.3504 23.9168 20.9568 23.9168C20.5696 23.92 20.2784 24.224 20.2816 24.6176Z" fill="#95A0C5"/>
</svg>
