<svg width="32" height="32" viewBox="0 0 32 32" fill="none" xmlns="http://www.w3.org/2000/svg">
    <path d="M26.0188 25.5297C26.2652 24.7425 26.3964 23.8305 26.3964 22.7649C26.3964 16.8609 22.4028 12.4065 19.1004 10.3809C18.6172 10.0833 18.518 9.55206 18.886 9.11366C22.662 4.57606 21.3212 1.91686 19.1612 3.81126C16.8188 5.84646 15.2316 3.09446 10.8828 2.08006C7.53561 1.29286 11.1388 6.63686 12.9916 9.16486C13.3308 9.61606 13.1964 10.1889 12.7132 10.4961C9.44921 12.5633 5.59961 16.9633 5.59961 22.7681C5.59961 23.9041 5.74361 24.8641 6.01881 25.6737C6.20441 26.2049 6.16281 26.9953 5.95801 27.5169C5.74361 28.1121 5.75321 28.5921 6.03161 28.8673C6.29721 29.1233 6.76761 29.1329 7.33081 28.9601C7.87481 28.7969 8.65241 28.7969 9.17401 29.0209C10.998 29.8177 13.3788 30.0033 15.9996 30.0033C18.6524 30.0033 21.0652 29.8177 22.9084 28.9889C23.4204 28.7521 24.198 28.7521 24.7324 28.9281C25.3468 29.1425 25.846 29.1329 26.1244 28.8673C26.4316 28.5697 26.4092 28.0193 26.1372 27.3633C25.9036 26.8353 25.8396 26.0609 26.0188 25.5297ZM18.3708 23.5937C17.9932 24.0545 17.4396 24.3713 16.7004 24.5345V25.9585C16.5372 26.0097 16.3516 26.0321 16.1788 26.0321C15.9932 26.0321 15.8204 26.0129 15.6348 25.9585V24.6593H15.5324C15.2668 24.6593 15.0204 24.6497 14.8156 24.6273C14.6012 24.6145 14.3964 24.5857 14.2012 24.5473C14.0092 24.5153 13.8236 24.4673 13.6284 24.4129C13.4428 24.3521 13.2508 24.2785 13.046 24.1985C13.0652 23.9617 13.1196 23.7281 13.1804 23.4817C13.2412 23.2449 13.3244 22.9921 13.4172 22.7233C13.7564 22.8673 14.0828 22.9601 14.39 23.0081C14.6876 23.0689 15.014 23.0881 15.3532 23.0881C15.8748 23.0881 16.2748 23.0081 16.5532 22.8225C16.838 22.6497 16.9852 22.3617 16.9852 21.9745C16.9852 21.7825 16.9436 21.6161 16.8604 21.4913C16.7868 21.3569 16.6876 21.2545 16.5756 21.1745C16.4508 21.0945 16.3196 21.0209 16.1756 20.9697C16.022 20.9089 15.878 20.8449 15.7436 20.7841L15.0876 20.4993C14.822 20.3873 14.5756 20.2625 14.3516 20.1409C14.1276 20.0065 13.942 19.8561 13.7788 19.6801C13.6252 19.5073 13.5004 19.3025 13.4076 19.0657C13.3276 18.8289 13.2828 18.5345 13.2828 18.1857C13.2828 17.4497 13.4876 16.8737 13.9068 16.4481C14.326 16.0161 14.902 15.7633 15.638 15.6705V14.3713C15.8108 14.3201 15.9868 14.2977 16.1692 14.2977C16.3356 14.2977 16.518 14.3169 16.7004 14.3713V15.6385C17.0268 15.6577 17.3436 15.7121 17.654 15.7825C17.9516 15.8433 18.278 15.9361 18.6076 16.0609C18.566 16.5313 18.4348 17.0017 18.2172 17.4529C18.0924 17.4113 17.9708 17.3601 17.8396 17.3089C17.7148 17.2577 17.5836 17.2161 17.4396 17.1841C17.2956 17.1521 17.1324 17.1233 16.95 17.1041C16.7772 17.0849 16.5724 17.0721 16.3356 17.0721C16.2012 17.0721 16.0572 17.0849 15.9164 17.1041C15.7724 17.1233 15.638 17.1649 15.526 17.2385C15.414 17.2993 15.3212 17.3921 15.2476 17.5169C15.1676 17.6417 15.1356 17.7825 15.1356 17.9777C15.1356 18.1409 15.1676 18.2753 15.2156 18.3969C15.2764 18.5089 15.35 18.6017 15.4524 18.6817C15.5548 18.7617 15.6572 18.8257 15.7788 18.8865L16.15 19.0401L16.886 19.3473C17.2028 19.4817 17.4812 19.6129 17.734 19.7473C17.99 19.8817 18.2044 20.0321 18.3772 20.2177C18.55 20.4033 18.694 20.6273 18.7868 20.8929C18.8892 21.1585 18.9404 21.4977 18.9404 21.8945C18.9436 22.5569 18.7484 23.1329 18.3708 23.5937Z" fill="#95A0C5"/>
</svg>
